<mxfile host="Electron" modified="2024-07-11T17:20:18.858Z" agent="Mozilla/5.0 (Windows NT 10.0; Win64; x64) AppleWebKit/537.36 (KHTML, like Gecko) draw.io/24.5.3 Chrome/124.0.6367.207 Electron/30.0.6 Safari/537.36" etag="yiPIwXcrb_kIbTcLUFXc" version="24.5.3" type="device" pages="2">
  <diagram name="Page-1" id="5f0bae14-7c28-e335-631c-24af17079c00">
    <mxGraphModel dx="724" dy="1284" grid="1" gridSize="10" guides="1" tooltips="1" connect="1" arrows="1" fold="1" page="1" pageScale="1" pageWidth="1100" pageHeight="850" background="none" math="0" shadow="0">
      <root>
        <mxCell id="0" />
        <mxCell id="1" parent="0" />
        <mxCell id="L8trw_xbPCfY3DsBTv_T-22" value="" style="group" vertex="1" connectable="0" parent="1">
          <mxGeometry x="320" y="-700" width="190" height="215" as="geometry" />
        </mxCell>
        <mxCell id="L8trw_xbPCfY3DsBTv_T-13" value="Back-End" style="shape=cube;whiteSpace=wrap;html=1;boundedLbl=1;backgroundOutline=1;darkOpacity=0.05;darkOpacity2=0.1;size=10;fontSize=17;verticalAlign=top;fontStyle=1" vertex="1" parent="L8trw_xbPCfY3DsBTv_T-22">
          <mxGeometry x="-10" width="200" height="215" as="geometry" />
        </mxCell>
        <mxCell id="L8trw_xbPCfY3DsBTv_T-14" value="Routes" style="rounded=0;whiteSpace=wrap;html=1;fontStyle=0" vertex="1" parent="L8trw_xbPCfY3DsBTv_T-22">
          <mxGeometry x="20" y="45" width="130" height="20" as="geometry" />
        </mxCell>
        <mxCell id="L8trw_xbPCfY3DsBTv_T-31" style="edgeStyle=orthogonalEdgeStyle;rounded=0;orthogonalLoop=1;jettySize=auto;html=1;exitX=1;exitY=0.25;exitDx=0;exitDy=0;entryX=1;entryY=0.5;entryDx=0;entryDy=0;" edge="1" parent="L8trw_xbPCfY3DsBTv_T-22" source="L8trw_xbPCfY3DsBTv_T-15" target="L8trw_xbPCfY3DsBTv_T-14">
          <mxGeometry relative="1" as="geometry">
            <Array as="points">
              <mxPoint x="170" y="70" />
              <mxPoint x="170" y="55" />
            </Array>
          </mxGeometry>
        </mxCell>
        <mxCell id="L8trw_xbPCfY3DsBTv_T-32" style="edgeStyle=orthogonalEdgeStyle;rounded=0;orthogonalLoop=1;jettySize=auto;html=1;exitX=1;exitY=0.5;exitDx=0;exitDy=0;entryX=1;entryY=0.5;entryDx=0;entryDy=0;" edge="1" parent="L8trw_xbPCfY3DsBTv_T-22" source="L8trw_xbPCfY3DsBTv_T-15" target="L8trw_xbPCfY3DsBTv_T-16">
          <mxGeometry relative="1" as="geometry">
            <Array as="points">
              <mxPoint x="150" y="80" />
              <mxPoint x="170" y="80" />
              <mxPoint x="170" y="95" />
            </Array>
          </mxGeometry>
        </mxCell>
        <mxCell id="L8trw_xbPCfY3DsBTv_T-33" style="edgeStyle=orthogonalEdgeStyle;rounded=0;orthogonalLoop=1;jettySize=auto;html=1;exitX=1;exitY=0.5;exitDx=0;exitDy=0;entryX=1;entryY=0.25;entryDx=0;entryDy=0;" edge="1" parent="L8trw_xbPCfY3DsBTv_T-22" source="L8trw_xbPCfY3DsBTv_T-15" target="L8trw_xbPCfY3DsBTv_T-17">
          <mxGeometry relative="1" as="geometry">
            <Array as="points">
              <mxPoint x="180" y="75" />
              <mxPoint x="180" y="110" />
            </Array>
          </mxGeometry>
        </mxCell>
        <mxCell id="L8trw_xbPCfY3DsBTv_T-15" value="app.py" style="rounded=0;whiteSpace=wrap;html=1;fontStyle=0" vertex="1" parent="L8trw_xbPCfY3DsBTv_T-22">
          <mxGeometry x="20" y="65" width="130" height="20" as="geometry" />
        </mxCell>
        <mxCell id="L8trw_xbPCfY3DsBTv_T-16" value="config.py" style="rounded=0;whiteSpace=wrap;html=1;fontStyle=0" vertex="1" parent="L8trw_xbPCfY3DsBTv_T-22">
          <mxGeometry x="20" y="85" width="130" height="20" as="geometry" />
        </mxCell>
        <mxCell id="L8trw_xbPCfY3DsBTv_T-38" style="edgeStyle=orthogonalEdgeStyle;rounded=0;orthogonalLoop=1;jettySize=auto;html=1;exitX=1;exitY=0.75;exitDx=0;exitDy=0;entryX=1;entryY=0.5;entryDx=0;entryDy=0;" edge="1" parent="L8trw_xbPCfY3DsBTv_T-22" source="L8trw_xbPCfY3DsBTv_T-17" target="L8trw_xbPCfY3DsBTv_T-18">
          <mxGeometry relative="1" as="geometry">
            <Array as="points">
              <mxPoint x="170" y="120" />
              <mxPoint x="170" y="135" />
            </Array>
          </mxGeometry>
        </mxCell>
        <mxCell id="L8trw_xbPCfY3DsBTv_T-17" value="db.py" style="rounded=0;whiteSpace=wrap;html=1;fontStyle=0" vertex="1" parent="L8trw_xbPCfY3DsBTv_T-22">
          <mxGeometry x="20" y="105" width="130" height="20" as="geometry" />
        </mxCell>
        <mxCell id="L8trw_xbPCfY3DsBTv_T-18" value="models.py" style="rounded=0;whiteSpace=wrap;html=1;fontStyle=0" vertex="1" parent="L8trw_xbPCfY3DsBTv_T-22">
          <mxGeometry x="20" y="125" width="130" height="20" as="geometry" />
        </mxCell>
        <mxCell id="L8trw_xbPCfY3DsBTv_T-19" value="data.py" style="rounded=0;whiteSpace=wrap;html=1;fontStyle=0" vertex="1" parent="L8trw_xbPCfY3DsBTv_T-22">
          <mxGeometry x="20" y="145" width="130" height="20" as="geometry" />
        </mxCell>
        <mxCell id="L8trw_xbPCfY3DsBTv_T-20" value="extraccionDatos.py" style="rounded=0;whiteSpace=wrap;html=1;fontStyle=0" vertex="1" parent="L8trw_xbPCfY3DsBTv_T-22">
          <mxGeometry x="20" y="165" width="130" height="20" as="geometry" />
        </mxCell>
        <mxCell id="L8trw_xbPCfY3DsBTv_T-21" value="utils.py" style="rounded=0;whiteSpace=wrap;html=1;fontStyle=0" vertex="1" parent="L8trw_xbPCfY3DsBTv_T-22">
          <mxGeometry x="20" y="185" width="130" height="20" as="geometry" />
        </mxCell>
        <mxCell id="L8trw_xbPCfY3DsBTv_T-23" value="" style="group" vertex="1" connectable="0" parent="1">
          <mxGeometry x="110" y="-650" width="170" height="150" as="geometry" />
        </mxCell>
        <mxCell id="L8trw_xbPCfY3DsBTv_T-1" value="Front-End" style="shape=cube;whiteSpace=wrap;html=1;boundedLbl=1;backgroundOutline=1;darkOpacity=0.05;darkOpacity2=0.1;size=10;verticalAlign=top;fontSize=17;fontStyle=1" vertex="1" parent="L8trw_xbPCfY3DsBTv_T-23">
          <mxGeometry x="-20" width="190" height="150" as="geometry" />
        </mxCell>
        <mxCell id="L8trw_xbPCfY3DsBTv_T-2" value="Static" style="swimlane;horizontal=0;whiteSpace=wrap;html=1;fontStyle=0" vertex="1" parent="L8trw_xbPCfY3DsBTv_T-23">
          <mxGeometry x="20" y="60" width="130" height="80" as="geometry" />
        </mxCell>
        <mxCell id="L8trw_xbPCfY3DsBTv_T-3" value="CSS" style="rounded=0;whiteSpace=wrap;html=1;" vertex="1" parent="L8trw_xbPCfY3DsBTv_T-2">
          <mxGeometry x="30" y="10" width="90" height="20" as="geometry" />
        </mxCell>
        <mxCell id="L8trw_xbPCfY3DsBTv_T-9" value="JS" style="rounded=0;whiteSpace=wrap;html=1;" vertex="1" parent="L8trw_xbPCfY3DsBTv_T-2">
          <mxGeometry x="30" y="50" width="90" height="20" as="geometry" />
        </mxCell>
        <mxCell id="L8trw_xbPCfY3DsBTv_T-8" value="IMG" style="rounded=0;whiteSpace=wrap;html=1;" vertex="1" parent="L8trw_xbPCfY3DsBTv_T-2">
          <mxGeometry x="30" y="30" width="90" height="20" as="geometry" />
        </mxCell>
        <mxCell id="L8trw_xbPCfY3DsBTv_T-11" value="Templates" style="rounded=0;whiteSpace=wrap;html=1;fontStyle=0" vertex="1" parent="L8trw_xbPCfY3DsBTv_T-23">
          <mxGeometry x="20" y="40" width="130" height="20" as="geometry" />
        </mxCell>
        <mxCell id="L8trw_xbPCfY3DsBTv_T-42" style="edgeStyle=orthogonalEdgeStyle;rounded=0;orthogonalLoop=1;jettySize=auto;html=1;exitX=0;exitY=0.5;exitDx=0;exitDy=0;entryX=0;entryY=0.5;entryDx=0;entryDy=0;" edge="1" parent="L8trw_xbPCfY3DsBTv_T-23" source="L8trw_xbPCfY3DsBTv_T-11" target="L8trw_xbPCfY3DsBTv_T-2">
          <mxGeometry relative="1" as="geometry" />
        </mxCell>
        <mxCell id="L8trw_xbPCfY3DsBTv_T-27" value="&lt;font style=&quot;font-size: 17px;&quot;&gt;&lt;b&gt;Base de datos&lt;/b&gt;&lt;/font&gt;&lt;div style=&quot;&quot;&gt;&lt;font style=&quot;font-size: 12px;&quot;&gt;(PostgreSQL)&lt;/font&gt;&lt;/div&gt;" style="shape=cube;whiteSpace=wrap;html=1;boundedLbl=1;backgroundOutline=1;darkOpacity=0.05;darkOpacity2=0.1;size=10;verticalAlign=middle;" vertex="1" parent="1">
          <mxGeometry x="545" y="-611" width="160" height="55" as="geometry" />
        </mxCell>
        <mxCell id="L8trw_xbPCfY3DsBTv_T-34" style="edgeStyle=orthogonalEdgeStyle;rounded=0;orthogonalLoop=1;jettySize=auto;html=1;exitX=0;exitY=0.5;exitDx=0;exitDy=0;entryX=1;entryY=0.75;entryDx=0;entryDy=0;" edge="1" parent="1" source="L8trw_xbPCfY3DsBTv_T-15" target="L8trw_xbPCfY3DsBTv_T-11">
          <mxGeometry relative="1" as="geometry">
            <Array as="points">
              <mxPoint x="300" y="-625" />
              <mxPoint x="300" y="-595" />
            </Array>
          </mxGeometry>
        </mxCell>
        <mxCell id="L8trw_xbPCfY3DsBTv_T-35" style="edgeStyle=orthogonalEdgeStyle;rounded=0;orthogonalLoop=1;jettySize=auto;html=1;exitX=0;exitY=0.5;exitDx=0;exitDy=0;entryX=1;entryY=0.25;entryDx=0;entryDy=0;startArrow=classic;startFill=1;" edge="1" parent="1" source="L8trw_xbPCfY3DsBTv_T-14" target="L8trw_xbPCfY3DsBTv_T-11">
          <mxGeometry relative="1" as="geometry">
            <Array as="points">
              <mxPoint x="290" y="-645" />
              <mxPoint x="290" y="-605" />
            </Array>
          </mxGeometry>
        </mxCell>
        <mxCell id="L8trw_xbPCfY3DsBTv_T-36" style="edgeStyle=orthogonalEdgeStyle;rounded=0;orthogonalLoop=1;jettySize=auto;html=1;entryX=-0.004;entryY=0.46;entryDx=0;entryDy=0;entryPerimeter=0;" edge="1" parent="1" source="L8trw_xbPCfY3DsBTv_T-17" target="L8trw_xbPCfY3DsBTv_T-27">
          <mxGeometry relative="1" as="geometry" />
        </mxCell>
        <mxCell id="L8trw_xbPCfY3DsBTv_T-39" value="&lt;span style=&quot;font-size: 17px;&quot;&gt;&lt;b&gt;Discogs Client&lt;/b&gt;&lt;/span&gt;" style="shape=cube;whiteSpace=wrap;html=1;boundedLbl=1;backgroundOutline=1;darkOpacity=0.05;darkOpacity2=0.1;size=10;verticalAlign=middle;" vertex="1" parent="1">
          <mxGeometry x="545" y="-548" width="160" height="55" as="geometry" />
        </mxCell>
        <mxCell id="L8trw_xbPCfY3DsBTv_T-40" style="edgeStyle=orthogonalEdgeStyle;rounded=0;orthogonalLoop=1;jettySize=auto;html=1;exitX=1;exitY=0.5;exitDx=0;exitDy=0;entryX=0;entryY=0;entryDx=0;entryDy=22.5;entryPerimeter=0;" edge="1" parent="1" source="L8trw_xbPCfY3DsBTv_T-20" target="L8trw_xbPCfY3DsBTv_T-39">
          <mxGeometry relative="1" as="geometry" />
        </mxCell>
      </root>
    </mxGraphModel>
  </diagram>
  <diagram id="nJi2H4qGrgK4M9xatnL3" name="Nuevo">
    <mxGraphModel dx="724" dy="434" grid="1" gridSize="10" guides="1" tooltips="1" connect="1" arrows="1" fold="1" page="1" pageScale="1" pageWidth="827" pageHeight="1169" math="0" shadow="0">
      <root>
        <mxCell id="0" />
        <mxCell id="1" parent="0" />
        <mxCell id="U1zY1YWF5CBZRyaGXYbt-16" value="Plataforma de backend" style="html=1;whiteSpace=wrap;verticalAlign=top;" vertex="1" parent="1">
          <mxGeometry x="477" y="133" width="310" height="230" as="geometry" />
        </mxCell>
        <mxCell id="U1zY1YWF5CBZRyaGXYbt-8" value="Dispositivo del usuario" style="html=1;whiteSpace=wrap;verticalAlign=top;" vertex="1" parent="1">
          <mxGeometry x="70" y="170" width="340" height="200" as="geometry" />
        </mxCell>
        <mxCell id="U1zY1YWF5CBZRyaGXYbt-2" value="Interfaz de la aplicación web" style="shape=module;align=left;spacingLeft=20;align=center;verticalAlign=middle;whiteSpace=wrap;html=1;" vertex="1" parent="1">
          <mxGeometry x="80" y="200" width="120" height="70" as="geometry" />
        </mxCell>
        <mxCell id="U1zY1YWF5CBZRyaGXYbt-5" style="edgeStyle=orthogonalEdgeStyle;rounded=0;orthogonalLoop=1;jettySize=auto;html=1;entryX=1;entryY=0.75;entryDx=0;entryDy=0;startArrow=classic;startFill=1;dashed=1;exitX=0;exitY=0.75;exitDx=10;exitDy=0;exitPerimeter=0;strokeColor=default;align=center;verticalAlign=bottom;fontFamily=Helvetica;fontSize=9;fontColor=default;labelBackgroundColor=default;endArrow=classic;" edge="1" parent="1" source="U1zY1YWF5CBZRyaGXYbt-4" target="U1zY1YWF5CBZRyaGXYbt-2">
          <mxGeometry relative="1" as="geometry" />
        </mxCell>
        <mxCell id="U1zY1YWF5CBZRyaGXYbt-4" value="Cámara del dispositivo" style="shape=module;align=left;spacingLeft=20;align=center;verticalAlign=middle;whiteSpace=wrap;html=1;" vertex="1" parent="1">
          <mxGeometry x="280" y="200" width="120" height="70" as="geometry" />
        </mxCell>
        <mxCell id="U1zY1YWF5CBZRyaGXYbt-7" style="edgeStyle=orthogonalEdgeStyle;rounded=0;orthogonalLoop=1;jettySize=auto;html=1;exitX=0;exitY=0.75;exitDx=10;exitDy=0;exitPerimeter=0;dashed=1;strokeColor=default;align=center;verticalAlign=bottom;fontFamily=Helvetica;fontSize=9;fontColor=default;labelBackgroundColor=default;startArrow=classic;startFill=1;endArrow=classic;entryX=0.75;entryY=1;entryDx=0;entryDy=0;" edge="1" parent="1" source="U1zY1YWF5CBZRyaGXYbt-6" target="U1zY1YWF5CBZRyaGXYbt-2">
          <mxGeometry relative="1" as="geometry" />
        </mxCell>
        <mxCell id="U1zY1YWF5CBZRyaGXYbt-6" value="Cliente web" style="shape=module;align=left;spacingLeft=20;align=center;verticalAlign=middle;whiteSpace=wrap;html=1;" vertex="1" parent="1">
          <mxGeometry x="280" y="290" width="120" height="70" as="geometry" />
        </mxCell>
        <mxCell id="U1zY1YWF5CBZRyaGXYbt-11" style="edgeStyle=orthogonalEdgeStyle;rounded=0;orthogonalLoop=1;jettySize=auto;html=1;entryX=0.5;entryY=0;entryDx=0;entryDy=0;dashed=1;strokeColor=default;align=center;verticalAlign=bottom;fontFamily=Helvetica;fontSize=9;fontColor=default;labelBackgroundColor=default;startArrow=classic;startFill=1;endArrow=classic;" edge="1" parent="1" source="U1zY1YWF5CBZRyaGXYbt-9" target="U1zY1YWF5CBZRyaGXYbt-10">
          <mxGeometry relative="1" as="geometry" />
        </mxCell>
        <mxCell id="U1zY1YWF5CBZRyaGXYbt-22" value="JSON" style="edgeStyle=orthogonalEdgeStyle;rounded=0;orthogonalLoop=1;jettySize=auto;html=1;entryX=0.5;entryY=0;entryDx=0;entryDy=0;dashed=1;strokeColor=default;align=center;verticalAlign=bottom;fontFamily=Helvetica;fontSize=9;fontColor=default;labelBackgroundColor=default;startArrow=classic;startFill=1;endArrow=classic;" edge="1" parent="1" source="U1zY1YWF5CBZRyaGXYbt-9" target="U1zY1YWF5CBZRyaGXYbt-2">
          <mxGeometry relative="1" as="geometry">
            <Array as="points">
              <mxPoint x="547" y="140" />
              <mxPoint x="140" y="140" />
            </Array>
          </mxGeometry>
        </mxCell>
        <mxCell id="U1zY1YWF5CBZRyaGXYbt-9" value="API REST" style="shape=module;align=left;spacingLeft=20;align=center;verticalAlign=middle;whiteSpace=wrap;html=1;" vertex="1" parent="1">
          <mxGeometry x="487" y="163" width="120" height="70" as="geometry" />
        </mxCell>
        <mxCell id="U1zY1YWF5CBZRyaGXYbt-10" value="Servidor web" style="shape=module;align=left;spacingLeft=20;align=center;verticalAlign=middle;whiteSpace=wrap;html=1;" vertex="1" parent="1">
          <mxGeometry x="487" y="283" width="120" height="70" as="geometry" />
        </mxCell>
        <mxCell id="U1zY1YWF5CBZRyaGXYbt-14" style="edgeStyle=orthogonalEdgeStyle;rounded=0;orthogonalLoop=1;jettySize=auto;html=1;exitX=0.079;exitY=0.675;exitDx=0;exitDy=0;exitPerimeter=0;dashed=1;strokeColor=default;align=center;verticalAlign=bottom;fontFamily=Helvetica;fontSize=9;fontColor=default;labelBackgroundColor=default;startArrow=classic;startFill=1;endArrow=classic;entryX=0.998;entryY=0.686;entryDx=0;entryDy=0;entryPerimeter=0;" edge="1" parent="1" source="U1zY1YWF5CBZRyaGXYbt-12" target="U1zY1YWF5CBZRyaGXYbt-9">
          <mxGeometry relative="1" as="geometry">
            <mxPoint x="607" y="198" as="targetPoint" />
            <Array as="points">
              <mxPoint x="637" y="210" />
            </Array>
          </mxGeometry>
        </mxCell>
        <mxCell id="U1zY1YWF5CBZRyaGXYbt-12" value="API Discogs" style="shape=module;align=left;spacingLeft=20;align=center;verticalAlign=middle;whiteSpace=wrap;html=1;" vertex="1" parent="1">
          <mxGeometry x="657" y="163" width="120" height="70" as="geometry" />
        </mxCell>
        <mxCell id="U1zY1YWF5CBZRyaGXYbt-15" style="edgeStyle=orthogonalEdgeStyle;rounded=0;orthogonalLoop=1;jettySize=auto;html=1;entryX=1.001;entryY=0.863;entryDx=0;entryDy=0;exitX=0;exitY=0.75;exitDx=10;exitDy=0;exitPerimeter=0;dashed=1;strokeColor=default;align=center;verticalAlign=bottom;fontFamily=Helvetica;fontSize=9;fontColor=default;labelBackgroundColor=default;startArrow=classic;startFill=1;endArrow=classic;entryPerimeter=0;" edge="1" parent="1" source="U1zY1YWF5CBZRyaGXYbt-13" target="U1zY1YWF5CBZRyaGXYbt-9">
          <mxGeometry relative="1" as="geometry">
            <Array as="points">
              <mxPoint x="637" y="336" />
              <mxPoint x="637" y="223" />
              <mxPoint x="607" y="223" />
            </Array>
          </mxGeometry>
        </mxCell>
        <mxCell id="U1zY1YWF5CBZRyaGXYbt-13" value="Base de datos" style="shape=module;align=left;spacingLeft=20;align=center;verticalAlign=middle;whiteSpace=wrap;html=1;" vertex="1" parent="1">
          <mxGeometry x="657" y="283" width="120" height="70" as="geometry" />
        </mxCell>
        <mxCell id="U1zY1YWF5CBZRyaGXYbt-17" value="HTTP" style="ellipse;whiteSpace=wrap;html=1;aspect=fixed;verticalAlign=middle;labelPosition=center;verticalLabelPosition=middle;align=center;fontSize=9;" vertex="1" parent="1">
          <mxGeometry x="430" y="320" width="30" height="30" as="geometry" />
        </mxCell>
        <mxCell id="U1zY1YWF5CBZRyaGXYbt-18" style="edgeStyle=orthogonalEdgeStyle;rounded=0;orthogonalLoop=1;jettySize=auto;html=1;entryX=0.983;entryY=0.645;entryDx=0;entryDy=0;entryPerimeter=0;dashed=1;strokeColor=default;align=center;verticalAlign=bottom;fontFamily=Helvetica;fontSize=9;fontColor=default;labelBackgroundColor=default;startArrow=classic;startFill=1;endArrow=classic;" edge="1" parent="1" source="U1zY1YWF5CBZRyaGXYbt-17" target="U1zY1YWF5CBZRyaGXYbt-6">
          <mxGeometry relative="1" as="geometry" />
        </mxCell>
        <mxCell id="U1zY1YWF5CBZRyaGXYbt-19" style="edgeStyle=orthogonalEdgeStyle;rounded=0;orthogonalLoop=1;jettySize=auto;html=1;entryX=0;entryY=0.75;entryDx=10;entryDy=0;entryPerimeter=0;dashed=1;strokeColor=default;align=center;verticalAlign=bottom;fontFamily=Helvetica;fontSize=9;fontColor=default;labelBackgroundColor=default;startArrow=classic;startFill=1;endArrow=classic;" edge="1" parent="1" source="U1zY1YWF5CBZRyaGXYbt-17" target="U1zY1YWF5CBZRyaGXYbt-10">
          <mxGeometry relative="1" as="geometry" />
        </mxCell>
      </root>
    </mxGraphModel>
  </diagram>
</mxfile>
